PathFileType	3	(X/Y/Z)	C:\Users\koon_\Desktop\
DataRate	CameraRate	NumFrames	NumMarkers	Units	OrigDataRate	OrigDataStartFrame	OrigNumFrames
100.0	100.0	10	27	mm	100.0	1759	2010	
Frame#	Time	get:LFHD			get:RFHD			get:LBHD			get:RBHD			get:C7			get:T10			get:CLAV			get:STRN			get:RBAK			get:LSHO			get:LUPA			get:LELB			get:LFRA			get:LWRA			get:LWRB			get:LFIN			get:RSHO			get:RUPA			get:RELB			get:RFRA			get:RWRA			get:RWRB			get:RFIN			get:LASI			get:RASI			get:LPSI			get:RPSI			
		X1	Y1	Z1	X2	Y2	Z2	X3	Y3	Z3	X4	Y4	Z4	X5	Y5	Z5	X6	Y6	Z6	X7	Y7	Z7	X8	Y8	Z8	X9	Y9	Z9	X10	Y10	Z10	X11	Y11	Z11	X12	Y12	Z12	X13	Y13	Z13	X14	Y14	Z14	X15	Y15	Z15	X16	Y16	Z16	X17	Y17	Z17	X18	Y18	Z18	X19	Y19	Z19	X20	Y20	Z20	X21	Y21	Z21	X22	Y22	Z22	X23	Y23	Z23	X24	Y24	Z24	X25	Y25	Z25	X26	Y26	Z26	X27	Y27	Z27	
1759	17.58	66.224678	1545.5807	-84.547371	-90.543938	1534.9579	-83.080475	59.57653	1535.7384	-208.97922	-66.428627	1536.5608	-227.63226	-9.5343227	1345.976	-250.94992	-15.250696	1084.8766	-280.99442	-1.0710784	1270.0779	-63.137009	13.593062	1082.5627	-24.554316	-92.962967	1282.2423	-271.61145	144.94482	1352.6799	-173.86917	262.14883	1273.3318	-172.51556	370.73309	1180.1501	-170.53375	342.36246	1295.6119	-155.50058	345.26846	1382.2083	-136.68729	412.56494	1377.5747	-143.34108	397.1629	1463.767	-163.11771	-144.98489	1346.6937	-157.60147	-317.32748	1240.9738	-112.36231	-381.88324	1164.2545	-102.89053	-332.58838	1246.5842	-101.65858	-319.16602	1385.8287	-76.437683	-389.89838	1382.1711	-85.58812	-345.84949	1447.4003	-119.40807	131.85034	889.7912	-102.15346	-149.21872	873.06024	-85.241699	31.904499	916.80219	-301.49078	-75.764183	901.63568	-294.64383
1760	17.59	66.689705	1545.5813	-84.507828	-90.092743	1535.0289	-83.046158	60.092033	1535.7183	-208.94138	-65.886024	1536.5894	-227.53748	-8.8916082	1345.7102	-250.71754	-14.445794	1084.743	-280.55902	-0.72918755	1270.1692	-62.961765	13.795238	1082.5815	-24.196566	-92.361023	1281.9924	-271.56653	145.49997	1352.7189	-173.47801	262.57593	1273.1382	-171.91859	370.42508	1179.7228	-169.52071	340.15854	1294.8604	-157.41171	341.38889	1381.7581	-140.02882	408.75867	1378.2273	-145.90158	392.03699	1463.7101	-167.78845	-144.48073	1346.6234	-157.7536	-317.14929	1241.2933	-112.96597	-381.70474	1164.5956	-102.42867	-331.30405	1246.3506	-102.58691	-316.57657	1385.8875	-80.232956	-387.30304	1382.7909	-89.280449	-342.43475	1446.5442	-124.79031	132.18681	889.69379	-101.26706	-148.92783	873.06921	-84.99543	32.821388	916.65363	-300.66751	-74.916313	901.6156	-294.42908
1761	17.6	67.139908	1545.5356	-84.425049	-89.669769	1535.058	-82.987709	60.534832	1535.6815	-208.86732	-65.396042	1536.91	-227.6926	-8.1926689	1345.4774	-250.40564	-13.612982	1084.5806	-280.08429	-0.39856631	1270.2444	-62.655682	14.11539	1082.761	-23.707012	-91.748207	1281.7969	-271.41629	146.11803	1352.7517	-172.95424	263.04016	1272.7556	-170.47449	370.09637	1178.9709	-168.67165	337.92731	1293.4987	-158.20633	337.59741	1380.8459	-143.23129	405.06555	1378.3818	-148.50891	387.24667	1463.147	-172.34233	-144.09138	1346.5615	-157.89276	-316.81329	1241.21	-113.46918	-381.42731	1164.814	-102.48568	-329.97864	1245.8253	-103.4973	-314.12119	1385.6577	-83.871849	-384.89828	1383.1157	-92.962212	-339.29044	1445.3623	-129.9872	132.48364	889.56769	-100.38698	-148.59637	873.07111	-84.777092	33.743179	916.56299	-300.10358	-74.018295	901.72681	-294.46103
1762	17.61	67.56649	1545.4901	-84.343407	-89.175926	1535.1068	-82.846611	61.018635	1535.6138	-208.77223	-64.985443	1536.6968	-227.43562	-7.5200229	1345.3678	-250.08109	-12.724238	1084.583	-279.91489	-0.16429478	1270.2336	-62.389454	14.436558	1082.824	-23.241983	-91.064827	1281.652	-271.30371	146.73181	1352.7018	-172.29314	263.24753	1272.0498	-169.85658	369.60641	1177.8285	-167.95357	335.68481	1292.0018	-159.44431	334.12259	1379.5448	-146.23729	401.56714	1378.0596	-151.03117	382.65109	1462.1558	-176.71648	-143.63766	1346.4954	-157.9422	-316.50198	1240.9324	-113.78204	-381.10483	1164.7375	-102.51897	-328.94437	1244.941	-104.48144	-311.84164	1385.1027	-87.331291	-382.63242	1383.153	-96.578552	-336.14725	1444.2175	-136.1711	132.86591	889.45319	-99.542534	-148.3241	873.06982	-84.583992	34.599232	916.48926	-299.37955	-73.090233	901.78046	-294.33978
1763	17.62	68.036598	1545.4141	-84.191673	-88.785675	1535.1692	-82.792786	61.445881	1535.5358	-208.65025	-64.569778	1536.7169	-227.40291	-6.805624	1345.2625	-249.69397	-11.911576	1084.6263	-279.73297	0.0819408	1270.1761	-62.088306	14.67545	1082.8093	-22.900398	-90.393501	1281.5239	-271.10049	147.41144	1352.6841	-171.68892	263.59021	1271.1348	-169.245	368.97168	1176.472	-167.33553	333.51068	1290.2535	-160.57034	330.8024	1377.9532	-149.01169	398.19843	1377.3719	-153.41751	378.33005	1460.7515	-180.82095	-143.17343	1346.4302	-157.95177	-316.3118	1240.8781	-114.75211	-380.66302	1164.5493	-103.01659	-327.7413	1243.8857	-105.71297	-309.76569	1384.4159	-90.752556	-380.42896	1382.9098	-100.02583	-333.70923	1442.3468	-139.34891	133.19791	889.31201	-98.749565	-148.00832	873.0545	-84.416023	35.454597	916.49457	-298.84869	-72.307159	901.67596	-293.82336
1764	17.63	68.432457	1545.3887	-84.083839	-88.389549	1535.1949	-82.758675	61.894894	1535.4446	-208.52856	-64.094925	1536.8857	-227.45688	-6.1156621	1345.2231	-249.44545	-11.100077	1084.4258	-279.14597	0.29382738	1270.0837	-61.740547	14.885744	1082.7067	-22.591856	-89.698204	1281.4338	-270.9881	148.07637	1352.564	-171.24245	263.88956	1270.0503	-168.80005	368.29861	1174.9417	-166.80309	331.35278	1288.3286	-161.66086	327.58667	1376.1007	-151.59763	394.9942	1376.3534	-155.68452	374.28354	1458.954	-184.65796	-142.77249	1346.3425	-157.94365	-316.70248	1240.8191	-115.47215	-380.13547	1164.0447	-103.38992	-326.69385	1242.9742	-107.0014	-307.7453	1383.474	-93.905899	-378.39572	1382.4816	-103.46049	-331.17636	1440.6276	-143.6869	133.54822	889.1825	-97.935898	-147.74565	873.06598	-84.332527	36.282379	916.41113	-298.16559	-71.64344	901.44458	-292.73209
1765	17.64	68.699036	1545.3502	-83.966728	-88.043633	1535.218	-82.729782	62.328037	1535.3241	-208.405	-63.673885	1536.8102	-227.40132	-5.4082289	1345.1504	-248.88785	-10.320592	1084.2728	-278.6813	0.63682932	1270.1836	-61.183949	15.02103	1082.5648	-22.335037	-88.932053	1281.2968	-270.65921	148.73415	1352.4296	-170.90192	264.1795	1268.8561	-168.38684	367.52625	1173.2524	-166.42552	329.27811	1286.2717	-162.59608	324.56778	1374.0441	-153.86942	391.94592	1375.0853	-157.8317	370.49533	1456.887	-188.36052	-142.39687	1346.2323	-157.92851	-315.83789	1240.0345	-116.41699	-379.58337	1163.2759	-103.5988	-325.68884	1241.8667	-108.08229	-305.91675	1382.3788	-96.77755	-376.52579	1381.7267	-106.60908	-328.50934	1439.0059	-148.78833	133.89348	889.07489	-97.12294	-147.41156	873.04834	-84.221573	37.079639	916.38293	-297.6813	-70.845009	901.48346	-292.57074
1766	17.65	69.040482	1545.3896	-83.843651	-87.756065	1535.2358	-82.679886	62.72942	1535.2318	-208.24002	-63.253826	1536.4618	-227.1564	-4.7111192	1345.1274	-248.36365	-9.5654087	1084.147	-278.24942	0.74481535	1269.7919	-61.016918	15.113965	1082.3958	-22.122957	-88.170891	1281.2211	-270.35245	149.57681	1352.2238	-169.48949	264.54468	1267.566	-167.96088	366.74857	1171.4506	-166.17133	327.27975	1284.092	-163.43692	321.79068	1371.8688	-155.87088	389.06577	1373.5767	-159.77617	366.93356	1454.58	-191.7545	-142.04243	1346.1163	-157.7901	-314.89981	1239.1438	-117.43198	-378.79532	1162.5615	-104.41781	-324.56607	1240.7593	-109.48808	-304.16449	1381.1985	-99.475677	-374.71176	1380.7943	-109.59122	-326.31366	1437.2025	-152.42096	134.2802	888.9292	-96.382828	-147.0769	873.02478	-84.039223	37.872623	916.34241	-297.17923	-70.110451	901.43353	-292.23874
1767	17.66	69.301819	1545.4541	-83.639908	-87.454643	1535.2266	-82.639023	63.153172	1535.1165	-208.03065	-62.78722	1536.5093	-227.26035	-3.9955382	1345.0809	-247.85193	-8.8124256	1083.9896	-277.82407	1.0220892	1269.7267	-61.135963	15.195144	1082.1926	-21.840197	-87.418503	1281.2052	-270.24237	150.38872	1351.9257	-168.78682	264.81992	1266.1912	-167.61667	365.96472	1169.5383	-165.98836	325.44763	1281.8312	-164.18137	319.15207	1369.5643	-157.59595	386.38531	1371.9288	-161.65579	363.59555	1452.1055	-194.77806	-141.68901	1345.9595	-157.68542	-314.23483	1238.1497	-118.04143	-378.1362	1161.6169	-105.01333	-323.59079	1239.5112	-110.72017	-302.55405	1379.9504	-101.89332	-373.1127	1379.6614	-112.11232	-324.31747	1435.3281	-155.60185	134.61304	888.83167	-95.618568	-146.76712	873.02026	-83.899681	38.593784	916.2392	-296.72369	-69.40007	901.46942	-292.12607
1768	17.67	69.60952	1545.5599	-83.444664	-87.220551	1535.2325	-82.62925	63.571392	1534.9967	-207.85634	-62.331921	1536.3331	-227.26625	-3.2368033	1345.0116	-247.15163	-8.0691032	1083.9633	-277.62817	1.243749	1269.4983	-60.720837	15.256276	1081.9539	-21.579962	-86.666817	1281.144	-270.06912	151.27759	1351.5497	-168.07939	265.12387	1264.7865	-167.34888	365.22314	1167.5255	-165.7933	323.74557	1279.5134	-164.74802	316.72531	1367.2559	-159.09297	383.89273	1370.1512	-163.43427	360.44003	1449.6648	-197.58124	-141.3571	1345.8341	-157.61818	-312.46539	1237.2053	-119.96954	-377.31082	1160.7639	-105.96604	-322.52527	1238.3497	-112.00965	-301.05161	1378.693	-104.0683	-371.50134	1378.5967	-114.59793	-322.52802	1433.5068	-158.56374	135.01292	888.68848	-94.984711	-146.42535	873.03064	-83.78421	39.364128	916.16986	-296.27206	-68.722557	901.36749	-291.81927
